<svg xmlns="http://www.w3.org/2000/svg"  viewBox="0 0 20 20">
  <g id="Сгруппировать_181" data-name="Сгруппировать 181" transform="translate(-270 -1844)">
    <rect id="Bounding_box" data-name="Bounding box" width="20" height="20" transform="translate(270 1844)" fill="rgba(255,255,255,0)"/>
    <path id="Icon_color" data-name="Icon color" d="M8,16a8,8,0,1,1,8-8A8.009,8.009,0,0,1,8,16ZM8,1.6A6.4,6.4,0,1,0,14.4,8,6.407,6.407,0,0,0,8,1.6Zm.33,10.362A.329.329,0,0,1,8.1,11.87a.333.333,0,0,1-.1-.247V4.352A.336.336,0,0,1,8.1,4.1a.331.331,0,0,1,.231-.092h.02V4a3.981,3.981,0,0,1,0,7.962Z" transform="translate(272 1846)" fill="#fff"/>
  </g>
</svg>
