<svg xmlns="http://www.w3.org/2000/svg" viewBox="0 0 20 20">
  <path id="Shape" d="M10,20a1.046,1.046,0,0,1-1.084-1V17A1.046,1.046,0,0,1,10,16a1.021,1.021,0,0,1,.964,1v2A1.021,1.021,0,0,1,10,20Zm6.326-2.629a.889.889,0,0,1-.663-.3l-1.445-1.41a1.066,1.066,0,0,1,0-1.422.918.918,0,0,1,.678-.289,1.248,1.248,0,0,1,.768.289l1.326,1.422a.868.868,0,0,1,0,1.41A.889.889,0,0,1,16.326,17.371Zm-12.711,0a.97.97,0,0,1-.723-.3,1.044,1.044,0,0,1,0-1.41l1.445-1.422a.9.9,0,0,1,1.325,0,.879.879,0,0,1,0,1.422l-1.325,1.41A.97.97,0,0,1,3.615,17.371ZM10,14a4.123,4.123,0,0,1-2.907-1.169,3.958,3.958,0,0,1,0-5.658A4.119,4.119,0,0,1,10,6a3.937,3.937,0,0,1,2.8,1.173A4,4,0,0,1,10,14Zm0-6a2.052,2.052,0,0,0-2.048,2A2.052,2.052,0,0,0,10,12a1.944,1.944,0,0,0,1.928-2A1.967,1.967,0,0,0,10,8Zm8.916,3H16.989a.94.94,0,0,1-.964-1,.94.94,0,0,1,.964-1h1.927a1,1,0,1,1,0,2Zm-15.9,0H.964A.94.94,0,0,1,0,10,.94.94,0,0,1,.964,9H3.012a1,1,0,0,1,0,2ZM14.895,6.058a.9.9,0,0,1-.678-.3,1.046,1.046,0,0,1,0-1.41l1.445-1.422a.9.9,0,0,1,1.326,0,.924.924,0,0,1,.361.711.924.924,0,0,1-.361.711l-1.326,1.41A1.224,1.224,0,0,1,14.895,6.058ZM5,6.058a.887.887,0,0,1-.663-.3L2.892,4.349a1.065,1.065,0,0,1,0-1.422.985.985,0,0,1,.723-.29.985.985,0,0,1,.723.29L5.663,4.349a.867.867,0,0,1,0,1.41A.887.887,0,0,1,5,6.058ZM10,4A1.046,1.046,0,0,1,8.916,3V1A1.046,1.046,0,0,1,10,0a1.021,1.021,0,0,1,.964,1V3A1.021,1.021,0,0,1,10,4Z"/>
</svg>
